<?xml version="1.0" standalone="no"?>
<!DOCTYPE svg PUBLIC "-//W3C//DTD SVG 20010904//EN"
 "http://www.w3.org/TR/2001/REC-SVG-20010904/DTD/svg10.dtd">
<svg version="1.0" xmlns="http://www.w3.org/2000/svg"
 width="425.000000pt" height="425.000000pt" viewBox="0 0 425.000000 425.000000"
 preserveAspectRatio="xMidYMid meet">

<g transform="translate(0.000000,425.000000) scale(0.100000,-0.100000)"
fill="#000000" stroke="none">
<path d="M2178 3623 c-24 -27 -108 -166 -108 -178 0 -6 -9 -19 -21 -28 -20
-18 -21 -18 -15 0 7 21 -9 44 -88 136 -52 61 -60 66 -70 41 -3 -8 -2 -13 3
-10 5 3 21 -5 37 -19 22 -19 26 -27 16 -37 -6 -6 -12 -16 -12 -22 0 -5 7 -1
15 10 8 10 15 14 15 8 0 -5 -6 -18 -13 -29 -18 -23 -40 -10 -35 19 4 19 1 22
-19 18 -23 -4 -33 13 -11 20 8 3 9 6 1 11 -10 6 -21 -15 -58 -107 l-15 -38
-51 46 c-56 50 -70 56 -62 27 2 -10 12 -18 20 -17 20 1 38 -27 30 -48 -4 -9
-16 -16 -27 -16 -15 0 -20 -7 -20 -27 0 -22 -2 -25 -10 -13 -8 13 -11 11 -16
-7 -4 -13 -12 -23 -20 -23 -8 0 -11 6 -7 16 4 12 0 15 -18 12 -19 -2 -25 -10
-27 -34 -2 -25 5 -40 43 -80 25 -27 54 -61 63 -76 9 -16 22 -28 28 -28 17 0
33 23 33 45 -1 26 19 151 29 190 8 28 42 49 42 26 0 -6 19 -37 43 -68 23 -32
52 -75 62 -96 24 -47 29 -51 55 -37 12 7 20 21 20 38 0 34 26 132 38 144 5 5
13 4 19 -4 24 -30 77 -167 81 -210 7 -77 28 -52 25 29 -1 9 8 11 26 7 46 -12
81 -34 81 -53 0 -25 33 -52 60 -49 12 2 25 -3 27 -10 3 -6 -1 -10 -9 -9 -7 2
-10 2 -5 0 4 -3 7 -12 7 -21 0 -12 -3 -13 -12 -4 -16 16 -33 15 -20 -1 9 -10
0 -13 -41 -12 -29 0 -57 3 -64 8 -6 4 -14 3 -18 -3 -10 -17 -25 -11 -25 9 0
11 -4 22 -9 25 -4 3 -11 -23 -15 -57 -3 -34 -13 -95 -22 -136 l-17 -74 -17 46
c-10 26 -33 66 -51 89 -18 24 -34 45 -36 47 -9 13 -11 -12 -4 -64 11 -81 3
-108 -35 -110 -16 -1 -43 -5 -61 -9 -37 -9 -39 -7 -62 85 -10 41 -21 67 -26
60 -4 -7 -13 -10 -21 -7 -21 8 -18 -39 11 -146 14 -51 25 -95 25 -98 0 -12
-106 102 -147 158 -25 34 -47 62 -49 62 -1 0 0 -9 3 -20 3 -12 -1 -22 -11 -26
-22 -8 -20 -24 3 -24 10 0 29 -9 42 -20 l24 -19 -40 -1 c-51 0 -86 -10 -79
-21 3 -5 -2 -6 -10 -3 -8 3 -16 0 -19 -8 -2 -7 -3 -5 -2 5 4 20 -15 23 -34 5
-11 -11 -12 -10 -6 1 5 9 4 12 -4 7 -17 -11 -50 75 -48 128 l2 45 24 -16 c18
-11 26 -13 29 -5 5 17 18 15 38 -5 17 -17 17 -16 10 12 -4 16 -20 45 -35 64
-15 20 -31 50 -35 66 -4 17 -15 39 -24 49 -13 15 -13 17 -2 11 30 -17 58 -49
53 -62 -7 -18 38 -78 47 -62 5 8 19 -6 40 -42 32 -55 33 -34 0 34 -9 20 -14
37 -10 37 3 0 1 28 -7 63 -7 34 -12 84 -11 110 2 47 1 49 -48 84 -47 34 -173
98 -179 91 -9 -8 -17 -208 -9 -208 5 0 20 -10 34 -21 24 -20 25 -21 2 -16 -12
3 -20 1 -17 -3 3 -5 2 -16 -2 -26 -5 -13 -9 -6 -17 27 -10 41 -14 45 -63 63
-48 17 -54 17 -68 2 -9 -9 -12 -16 -6 -16 6 0 3 -8 -7 -18 -9 -11 -20 -17 -23
-16 -4 2 -12 -3 -19 -11 -10 -12 -10 -28 1 -80 7 -35 15 -68 18 -73 3 -4 26
-16 51 -27 142 -61 260 -172 330 -311 53 -103 61 -129 32 -98 -59 63 -103 89
-54 31 8 -9 13 -20 10 -23 -5 -5 -70 28 -95 48 -21 17 -15 -1 12 -36 28 -36
34 -86 11 -86 -8 0 -18 -9 -21 -20 -3 -11 -12 -20 -18 -20 -7 0 -6 -4 3 -11
11 -7 0 -8 -37 -4 -29 4 -53 4 -53 1 0 -3 23 -30 52 -58 l51 -53 -44 -3 c-24
-2 -84 4 -132 14 -48 9 -91 14 -94 10 -3 -3 1 -6 10 -6 11 0 14 -5 10 -16 -4
-12 0 -14 23 -9 l29 5 -28 -11 c-25 -10 -27 -15 -26 -60 2 -50 -15 -78 -48
-79 -15 0 -18 -20 -4 -20 6 0 13 5 16 10 3 6 18 9 33 9 21 -1 22 -2 7 -6 -26
-6 -44 -23 -25 -23 8 0 25 -11 40 -25 15 -15 42 -26 68 -30 24 -3 53 -10 65
-17 20 -11 18 -13 -35 -29 -115 -36 -287 -46 -296 -19 -2 6 -13 10 -24 10 -13
0 -24 10 -31 30 -9 25 -17 30 -44 30 -18 0 -33 -4 -33 -10 0 -13 39 -32 55
-26 7 2 16 -2 19 -10 4 -11 -1 -13 -22 -8 -49 11 -163 67 -159 78 6 19 128 40
149 27 10 -6 23 -9 28 -6 6 3 7 -1 4 -9 -8 -21 6 -20 21 1 10 14 17 15 41 5
38 -14 94 -25 94 -18 0 3 -17 13 -37 22 l-38 16 30 13 30 13 -30 7 c-124 28
-319 114 -301 132 2 3 16 -3 30 -13 15 -9 30 -13 34 -9 7 6 -24 36 -57 55 -18
10 -15 15 18 25 20 6 23 4 17 -10 -5 -13 -2 -16 10 -11 10 4 14 1 11 -6 -4
-13 58 -57 81 -58 7 0 0 11 -15 24 l-28 24 30 32 c31 32 55 35 109 14 16 -6
18 -4 13 9 -8 21 -9 20 43 2 24 -8 44 -14 46 -13 1 2 -14 14 -34 28 -19 14
-70 58 -112 98 -70 66 -80 72 -119 72 -48 0 -192 -31 -174 -37 7 -2 9 -11 6
-19 -5 -13 -7 -13 -14 -2 -7 10 -9 9 -9 -4 0 -9 22 -47 50 -83 l50 -66 -28
-10 c-83 -30 -132 -53 -142 -64 -14 -17 46 -86 122 -142 l50 -36 -74 -39 c-41
-21 -90 -52 -109 -68 l-34 -30 30 -26 c17 -14 54 -39 84 -56 l54 -32 -24 -19
c-34 -27 -129 -117 -129 -122 0 -7 102 -51 173 -74 l67 -23 38 30 c62 49 135
88 218 117 74 26 87 27 203 22 100 -4 126 -8 140 -22 15 -17 15 -17 -1 -12
-10 4 -18 2 -18 -2 0 -5 6 -11 13 -14 6 -2 -4 -7 -23 -11 -19 -4 -47 -17 -63
-29 -26 -22 -26 -23 -5 -23 65 0 99 -5 94 -12 -2 -4 2 -22 11 -40 14 -29 14
-33 -7 -67 -12 -19 -26 -35 -31 -35 -5 0 -9 -5 -9 -10 0 -7 6 -7 20 0 10 6 23
9 27 8 4 -1 30 1 56 6 44 7 50 11 75 57 15 27 29 49 32 49 5 0 51 -65 58 -82
2 -5 -10 -8 -26 -8 -68 0 -90 -11 -125 -64 -107 -160 -234 -246 -428 -287 -47
-10 -52 -14 -71 -57 -25 -57 -67 -189 -62 -194 4 -5 149 9 182 17 22 5 24 3
18 -18 -14 -56 -26 -171 -18 -179 10 -10 155 35 206 64 37 22 41 28 56 100 32
142 132 280 268 368 72 46 82 63 82 131 0 29 22 40 36 18 3 -6 20 -19 37 -29
l31 -19 -45 -19 c-24 -11 -50 -27 -58 -36 -14 -16 -43 -137 -35 -145 2 -2 14
5 27 17 28 27 39 27 95 5 l44 -18 -6 -55 c-5 -50 -5 -53 9 -35 50 67 81 104
86 105 23 1 25 -196 4 -288 -19 -80 -73 -185 -123 -241 l-40 -44 -16 29 c-11
22 -15 25 -16 10 0 -15 -3 -16 -14 -7 -11 9 -18 8 -30 -4 -15 -15 -16 -15 -16
2 0 15 -2 16 -10 3 -8 -12 -10 -12 -10 5 0 17 -2 17 -10 5 -9 -13 -11 -13 -20
0 -6 10 -10 11 -10 2 0 -6 -3 -11 -7 -11 -5 1 -10 0 -13 -1 -17 -6 -40 -7 -40
-1 0 4 12 14 28 23 20 11 46 15 100 12 53 -2 72 0 72 9 0 17 -56 77 -72 77 -7
0 -38 -23 -68 -51 -30 -28 -63 -57 -74 -64 -17 -12 -17 -19 -6 -82 6 -37 17
-80 23 -96 l12 -27 42 28 c24 16 67 52 98 81 35 33 56 48 59 39 31 -107 60
-188 75 -206 l17 -24 53 53 c29 29 60 63 68 76 l16 24 26 -48 c42 -75 75 -123
86 -123 13 0 86 109 116 172 l22 46 37 -56 c20 -32 56 -77 80 -101 l43 -44 17
23 c9 12 25 46 35 74 10 28 22 62 27 75 l9 24 42 -40 c56 -53 97 -83 113 -83
18 0 43 88 51 177 l6 72 43 -34 c24 -18 73 -48 109 -66 53 -27 67 -31 74 -20
12 18 24 168 15 182 -8 13 -12 14 109 -28 65 -22 80 -24 87 -13 10 17 3 90
-19 183 l-16 69 -57 23 c-68 28 -136 73 -201 134 -83 78 -83 89 1 152 74 56
80 62 87 92 4 15 12 24 20 21 20 -8 79 60 111 126 16 33 32 60 36 60 25 0 162
-95 217 -150 l65 -65 -58 -3 c-33 -2 -64 2 -71 8 -8 7 -34 13 -57 15 -24 2
-47 4 -51 4 -5 1 -6 5 -2 10 7 12 -29 33 -40 23 -4 -4 -4 4 0 18 5 14 8 33 7
42 -1 21 18 35 27 20 4 -7 12 -8 21 -2 13 8 13 10 1 10 -8 0 -22 7 -32 16 -17
15 -19 14 -25 -12 -4 -16 -15 -46 -25 -66 -23 -45 -23 -49 -3 -41 22 8 130
-106 174 -186 57 -103 58 -103 160 -99 49 1 92 6 96 11 10 9 -29 91 -78 164
l-38 58 93 12 c115 15 151 25 155 44 1 8 -22 47 -53 87 -30 40 -55 75 -55 76
0 2 13 6 29 9 17 4 60 20 97 37 l68 30 -50 51 c-27 28 -71 67 -98 86 l-48 37
68 32 c38 17 89 46 114 64 l44 33 -34 29 c-19 16 -56 41 -82 56 -27 15 -48 30
-48 34 0 4 9 13 20 21 39 27 120 106 120 117 0 14 -106 62 -175 80 -27 7 -52
15 -54 16 -2 2 26 35 62 74 79 83 103 118 91 130 -12 12 -121 40 -156 40 -35
0 -35 14 1 69 39 58 66 120 57 129 -4 4 -63 7 -131 7 l-123 0 23 45 c26 52 65
163 65 185 0 18 -37 19 -129 5 -35 -6 -65 -9 -68 -6 -2 2 0 30 6 62 5 33 11
77 13 99 2 35 0 40 -17 37 -33 -5 -179 -53 -190 -63 -5 -5 -16 -9 -25 -9 -13
0 -15 17 -12 125 2 77 -1 125 -7 125 -16 0 -96 -37 -140 -64 l-41 -26 0 -81
c0 -44 -5 -101 -11 -127 -17 -73 -63 -182 -76 -182 -7 0 -13 4 -13 10 0 5 6
13 13 17 6 4 18 19 25 32 11 20 12 25 1 32 -8 4 -16 3 -20 -2 -7 -12 -48 7
-62 29 -5 7 -13 9 -19 6 -6 -4 -14 -1 -18 7 -7 10 -14 10 -35 1 -14 -7 -25 -9
-23 -5 2 5 10 22 18 38 22 45 72 110 111 142 18 15 41 35 50 43 9 8 26 22 37
30 20 15 20 18 6 96 -23 138 -19 135 -100 74 -38 -29 -83 -66 -101 -82 l-32
-31 -11 44 c-18 68 -71 199 -79 199 -5 0 -40 -33 -78 -73 l-69 -73 -37 66
c-21 36 -46 75 -55 88 -17 22 -19 22 -34 5z m-204 -129 c3 -8 2 -12 -4 -9 -6
3 -10 10 -10 16 0 14 7 11 14 -7z m-94 -9 c0 -9 -6 -12 -15 -9 -8 4 -12 10 -9
15 8 14 24 10 24 -6z m-100 -76 c0 -5 -4 -9 -8 -9 -5 0 -9 7 -9 15 0 8 4 12 9
9 4 -3 8 -9 8 -15z m-395 -27 c-3 -3 -11 0 -18 7 -9 10 -8 11 6 5 10 -3 15 -9
12 -12z m1163 -124 c2 -54 -2 -107 -12 -143 -8 -32 -13 -62 -10 -67 3 -4 23
-8 45 -8 22 0 49 -5 60 -10 22 -12 51 -64 41 -75 -12 -12 -9 -55 5 -55 7 0 10
-6 7 -14 -4 -11 3 -14 28 -13 22 1 33 7 33 17 0 8 10 16 21 18 18 3 23 -4 29
-35 7 -34 8 -36 16 -16 5 15 14 21 24 17 10 -4 15 0 15 15 0 11 9 26 20 33 11
7 20 19 20 26 0 7 -5 10 -10 7 -6 -4 -16 -2 -23 3 -7 5 -21 12 -32 14 -18 4
-17 6 8 16 27 12 35 26 18 36 -5 3 -14 -1 -21 -9 -7 -8 -19 -15 -27 -15 -9 0
-13 -6 -10 -14 4 -10 0 -14 -12 -13 -17 1 -18 3 -3 22 9 11 31 33 49 49 29 24
35 26 50 15 15 -12 16 -12 10 3 -3 10 -1 22 6 28 7 5 27 22 46 37 l34 27 -7
-39 c-4 -22 -11 -44 -14 -50 -4 -5 -8 -18 -9 -27 -5 -34 -53 -130 -83 -166
-16 -20 -30 -45 -30 -54 0 -10 -7 -18 -15 -18 -8 0 -20 -9 -27 -20 -19 -30
-42 -26 -34 7 5 17 3 29 -6 34 -21 14 -54 10 -68 -6 -17 -20 -31 -19 -23 3 4
13 1 11 -16 -6 -23 -24 -32 -23 -93 2 -32 14 -27 29 8 20 18 -5 26 0 39 26 20
39 16 84 -7 88 -10 2 -31 -6 -47 -17 -38 -27 -49 -26 -57 4 -3 14 -10 25 -15
25 -19 0 -86 -79 -95 -111 -7 -28 -9 -17 -12 61 -3 114 7 176 31 174 12 -1 13
2 5 16 -9 14 -4 32 26 91 43 85 96 160 111 155 6 -1 11 -41 13 -88z m-168
-118 c0 -5 -4 -10 -10 -10 -5 0 -10 5 -10 10 0 6 5 10 10 10 6 0 10 -4 10 -10z
m395 -190 c3 -5 2 -10 -4 -10 -5 0 -13 5 -16 10 -3 6 -2 10 4 10 5 0 13 -4 16
-10z m-325 -69 c0 -12 -20 -25 -27 -18 -7 7 6 27 18 27 5 0 9 -4 9 -9z m-40
-80 c0 -5 -7 -11 -15 -15 -15 -5 -20 5 -8 17 9 10 23 9 23 -2z m258 -23 c-6
-18 -28 -21 -28 -4 0 9 7 16 16 16 9 0 14 -5 12 -12z m627 2 c-3 -5 -11 -8
-18 -6 -7 1 -9 1 -4 -1 14 -9 7 -23 -13 -23 -12 0 -17 -5 -14 -14 6 -17 -11
-30 -27 -20 -8 4 -7 9 2 15 27 16 0 19 -62 5 -35 -8 -58 -14 -51 -15 24 -2 3
-18 -23 -18 -28 0 -58 -21 -49 -34 3 -5 -2 -6 -10 -3 -9 3 -23 -6 -37 -25 -13
-17 -31 -31 -42 -31 -16 0 -17 2 -7 15 31 37 166 116 238 139 81 26 127 33
117 16z m-1165 -43 c14 -23 26 -45 28 -49 2 -3 -22 -8 -53 -10 -30 -1 -54 -1
-53 2 2 3 12 27 23 53 11 26 22 47 25 47 3 0 16 -19 30 -43z m249 -37 c6 -28
11 -52 11 -54 0 -1 -22 4 -49 13 l-50 15 32 37 c18 21 35 38 39 38 3 1 11 -22
17 -49z m-489 -22 l40 -31 -48 -22 c-26 -12 -48 -21 -50 -20 -4 4 10 105 15
105 2 0 22 -14 43 -32z m350 17 c0 -8 -7 -15 -15 -15 -16 0 -20 12 -8 23 11
12 23 8 23 -8z m-230 -26 c0 -5 -9 -9 -20 -9 -22 0 -23 1 -14 24 5 13 9 14 20
5 8 -6 14 -15 14 -20z m1210 17 c0 -3 -4 -8 -10 -11 -5 -3 -10 -1 -10 4 0 6 5
11 10 11 6 0 10 -2 10 -4z m-356 -15 c4 -5 -3 -7 -14 -4 -23 6 -26 13 -6 13 8
0 17 -4 20 -9z m-394 -41 c0 -22 -1 -23 -24 -14 -13 5 -14 9 -5 20 16 20 29
17 29 -6z m132 -42 c-2 -29 -6 -55 -8 -57 -5 -5 -84 50 -84 58 1 5 75 46 91
50 3 0 4 -23 1 -51z m-470 -5 c18 -22 48 -15 61 15 11 24 16 26 47 22 26 -4
36 -11 40 -29 3 -13 14 -29 23 -35 15 -9 22 -6 38 13 17 21 23 23 40 13 10 -7
26 -12 35 -12 12 0 15 -6 10 -26 -12 -45 40 -76 62 -38 8 15 13 14 41 -7 17
-13 29 -29 26 -36 -3 -7 -8 -19 -11 -27 -7 -17 25 -49 42 -42 8 3 20 8 27 11
6 3 22 -9 34 -26 21 -31 21 -31 2 -50 -16 -16 -17 -23 -8 -40 8 -16 17 -20 39
-15 26 5 30 2 40 -29 10 -30 9 -36 -9 -54 -12 -12 -21 -25 -21 -30 0 -19 32
-42 51 -36 17 6 19 1 19 -39 0 -39 -3 -46 -19 -46 -11 0 -23 -9 -26 -20 -7
-23 10 -50 31 -50 8 0 14 -10 14 -24 0 -36 -10 -56 -29 -56 -41 0 -55 -49 -20
-72 21 -13 21 -15 5 -47 -12 -22 -22 -31 -32 -27 -40 15 -71 -37 -39 -64 12
-10 11 -17 -12 -46 -18 -24 -29 -32 -37 -24 -28 28 -79 -7 -58 -41 16 -24 17
-22 -18 -48 -28 -20 -32 -20 -46 -6 -8 8 -21 15 -28 15 -21 0 -39 -28 -33 -50
4 -17 -2 -25 -29 -37 -33 -16 -35 -16 -50 5 -27 38 -66 26 -68 -22 -1 -18 -8
-22 -46 -24 -25 -2 -42 0 -38 4 4 3 3 15 -3 26 -14 26 -51 20 -64 -10 -8 -19
-17 -22 -45 -20 -27 2 -35 8 -40 27 -3 13 -14 29 -23 35 -15 9 -22 7 -37 -12
-18 -22 -22 -23 -55 -11 -31 12 -35 17 -30 37 11 43 -28 67 -59 37 -14 -14
-18 -14 -46 6 -33 25 -34 27 -21 48 21 33 -28 68 -55 41 -8 -8 -19 0 -39 26
-25 32 -26 38 -11 46 37 21 6 79 -32 59 -18 -9 -22 -6 -36 29 -20 50 -20 47 5
53 16 4 20 12 17 34 -2 22 -9 29 -29 31 -22 3 -28 10 -34 39 -3 19 -5 36 -3
37 50 23 60 64 20 81 -19 8 -22 15 -18 39 3 16 6 34 6 41 0 8 9 10 24 8 38 -8
53 30 25 58 -20 20 -20 25 -9 60 11 34 15 37 33 28 15 -9 23 -7 39 8 18 19 16
53 -3 53 -15 0 -10 19 13 50 16 22 25 27 34 19 7 -6 23 -9 36 -7 26 3 37 40
19 62 -8 9 -3 18 19 34 35 26 37 26 56 7 19 -19 29 -19 48 1 10 9 14 24 10 39
-5 19 0 25 30 35 33 11 38 10 56 -12 15 -19 22 -21 37 -12 10 6 19 23 21 37 3
22 9 26 40 29 26 2 38 -1 41 -12 2 -8 8 -21 13 -27z m1018 37 c0 -5 -5 -10
-11 -10 -5 0 -7 5 -4 10 3 6 8 10 11 10 2 0 4 -4 4 -10z m-110 -26 c0 -8 -4
-12 -10 -9 -5 3 -10 10 -10 16 0 5 5 9 10 9 6 0 10 -7 10 -16z m420 6 c0 -5
-5 -10 -12 -10 -6 0 -9 -3 -6 -6 3 -3 -4 -15 -16 -27 -12 -12 -28 -31 -36 -42
-8 -11 -35 -36 -60 -55 -25 -19 -49 -39 -53 -45 -6 -6 -7 -4 -4 6 3 8 -1 26
-8 39 -7 13 -11 29 -8 36 2 6 -3 14 -11 17 -9 4 -16 18 -16 32 0 22 -4 25 -37
25 -51 0 -37 8 43 24 83 16 224 20 224 6z m-1678 -25 c0 -5 -5 -11 -11 -13 -6
-2 -11 4 -11 13 0 9 5 15 11 13 6 -2 11 -8 11 -13z m-82 -39 l25 -11 -38 -37
c-37 -36 -38 -36 -46 -15 -5 12 -12 37 -16 55 -7 32 -6 33 22 26 15 -4 39 -12
53 -18z m1305 4 c3 -5 2 -10 -4 -10 -5 0 -13 5 -16 10 -3 6 -2 10 4 10 5 0 13
-4 16 -10z m-349 -68 c-4 -3 -12 0 -19 7 -9 9 -9 14 3 21 11 7 16 5 18 -6 2
-9 1 -18 -2 -22z m494 26 c26 16 37 15 44 -3 5 -13 -4 -15 -49 -14 -46 2 -53
4 -43 16 9 11 13 11 19 1 7 -10 12 -11 29 0z m-360 -53 c0 -10 -44 -95 -49
-95 -5 0 -51 64 -59 82 -2 4 18 9 45 11 26 2 51 4 56 5 4 1 7 0 7 -3z m-1176
-40 c-4 -8 -10 -15 -14 -15 -4 0 -10 7 -14 15 -4 10 1 15 14 15 13 0 18 -5 14
-15z m1636 -5 c-20 -13 -33 -13 -25 0 3 6 14 10 23 10 15 0 15 -2 2 -10z m222
-62 c-7 -7 -12 -8 -12 -2 0 14 12 26 19 19 2 -3 -1 -11 -7 -17z m-1918 -33
c-12 -25 -26 -46 -29 -46 -7 0 -65 77 -65 86 0 3 26 5 59 5 l58 0 -23 -45z
m1896 21 c0 -8 -81 -59 -86 -53 -3 3 14 17 38 31 45 27 48 28 48 22z m-662
-25 c10 -6 10 -10 -3 -21 -8 -7 -15 -10 -15 -7 0 3 -3 12 -6 21 -7 17 3 20 24
7z m552 -40 c0 -11 -59 -36 -67 -28 -3 3 6 9 21 13 14 3 26 10 26 15 0 5 5 9
10 9 6 0 10 -4 10 -9z m-482 -48 c17 -3 32 -8 32 -11 0 -9 -63 -72 -71 -72 -4
0 -10 16 -13 36 -4 19 -10 43 -13 51 -5 13 -2 15 13 9 10 -4 34 -10 52 -13z
m379 1 c-3 -3 -12 -4 -19 -1 -8 3 -5 6 6 6 11 1 17 -2 13 -5z m-1727 -24 c0
-11 -4 -20 -9 -20 -14 0 -23 18 -16 30 10 17 25 11 25 -10z m-543 -6 c-3 -3
-12 -4 -19 -1 -8 3 -5 6 6 6 11 1 17 -2 13 -5z m522 -109 c-1 -30 -4 -55 -6
-55 -3 0 -25 14 -50 32 l-46 31 49 23 c27 12 50 23 52 23 1 1 2 -24 1 -54z
m1358 -12 c2 -6 -3 -13 -12 -16 -10 -5 -15 0 -15 14 0 21 21 22 27 2z m-1777
-73 c0 -5 12 -13 28 -17 26 -7 25 -8 -13 -13 -46 -7 -58 -1 -49 23 7 18 34 24
34 7z m1803 -25 c20 -14 37 -28 37 -30 0 -5 -92 -46 -95 -43 -5 8 8 98 14 98
3 0 23 -11 44 -25z m-1383 -10 c0 -8 -6 -15 -14 -15 -17 0 -28 14 -19 24 12
12 33 6 33 -9z m-340 -55 c0 -5 -4 -10 -10 -10 -5 0 -10 5 -10 10 0 6 5 10 10
10 6 0 10 -4 10 -10z m354 -63 c8 -27 10 -47 4 -47 -15 0 -98 22 -98 26 0 6
75 73 77 70 2 -1 9 -24 17 -49z m-391 29 c4 -11 1 -13 -10 -9 -12 5 -15 2 -10
-10 5 -14 4 -15 -14 -4 -18 11 -18 13 -2 25 22 16 30 15 36 -2z m1711 -47
c-11 -18 -32 -9 -27 11 4 16 8 18 19 9 8 -6 11 -15 8 -20z m-11 -101 c15 -20
27 -39 27 -42 0 -3 -25 -6 -56 -6 -31 0 -54 3 -52 8 2 4 13 26 24 49 10 23 21
39 25 35 3 -4 17 -24 32 -44z m-1263 0 c0 -5 -9 -8 -20 -8 -23 0 -26 10 -8 28
9 9 14 9 20 -1 4 -6 8 -15 8 -19z m1535 -89 c11 -11 -48 -1 -80 13 -13 5 -4 6
25 2 25 -3 49 -10 55 -15z m-365 -20 c0 -5 -7 -9 -15 -9 -15 0 -20 12 -9 23 8
8 24 -1 24 -14z m-34 -146 c-1 -1 -26 5 -55 13 l-53 16 39 39 38 38 16 -52 c9
-29 15 -53 15 -54z m-1013 56 c-23 -8 -27 -4 -19 17 5 14 9 14 22 3 14 -12 14
-14 -3 -20z m877 -74 c0 -17 -2 -18 -25 -9 -13 5 -14 8 -3 15 19 13 28 11 28
-6z m-78 -80 c-2 -30 -6 -55 -9 -55 -2 0 -22 15 -43 33 l-39 32 42 22 c23 12
44 22 47 23 3 0 3 -25 2 -55z m-608 39 c13 -5 14 -9 5 -20 -16 -20 -29 -17
-29 6 0 22 1 23 24 14z m150 -47 c3 4 6 2 6 -3 0 -6 -18 -27 -39 -48 -43 -42
-43 -42 -56 36 l-7 37 45 -14 c25 -7 48 -11 51 -8z m316 -13 c0 -17 -22 -14
-28 4 -2 7 3 12 12 12 9 0 16 -7 16 -16z m-232 -16 c-5 -15 -23 -11 -26 6 -2
11 2 14 13 10 9 -4 14 -11 13 -16z m131 -42 l-21 -47 -29 46 c-16 25 -29 48
-29 50 0 6 95 11 98 4 1 -3 -7 -27 -19 -53z m555 8 c3 -8 2 -12 -4 -9 -6 3
-10 10 -10 16 0 14 7 11 14 -7z m-1464 -68 c11 -10 17 -23 14 -28 -3 -4 1 -8
9 -8 8 0 18 -7 21 -16 5 -14 9 -14 23 -3 15 12 16 12 7 -1 -5 -8 -9 -24 -9
-35 0 -11 -7 -20 -15 -20 -8 0 -14 6 -12 13 1 8 -2 11 -8 7 -8 -5 -8 -11 -1
-19 16 -19 -21 -50 -48 -41 -27 8 -26 14 9 49 33 32 39 56 14 56 -11 0 -14 5
-10 18 6 15 6 15 -8 2 -17 -17 -96 -15 -96 2 0 5 13 23 30 39 32 32 33 32 80
-15z m946 -102 c3 -13 10 -24 14 -24 9 0 20 36 20 68 0 12 5 22 11 22 5 0 8 4
5 8 -3 5 0 9 7 9 7 0 23 3 37 8 17 5 22 4 15 -3 -5 -5 -19 -12 -30 -14 -14 -2
-21 -13 -23 -32 -3 -23 0 -28 13 -22 14 5 16 1 10 -24 -8 -37 16 -42 39 -8 20
28 21 49 1 42 -17 -7 -18 -3 -9 20 11 28 48 17 101 -29 43 -38 53 -43 63 -30
16 19 6 45 -19 45 -10 0 -22 7 -25 16 -5 12 -1 14 15 9 13 -5 25 -1 33 10 11
15 15 13 44 -19 47 -54 83 -130 103 -221 19 -81 25 -195 12 -195 -5 1 -24 19
-43 42 -19 22 -42 48 -50 57 -8 9 -23 29 -33 44 -17 27 -17 28 5 37 20 9 18
10 -11 5 -43 -6 -47 -11 -32 -29 7 -8 10 -20 7 -25 -4 -5 -8 -41 -11 -78 -5
-81 -23 -170 -36 -179 -5 -3 -21 9 -36 26 -15 18 -32 37 -38 44 -6 6 -24 32
-39 59 -30 50 -53 59 -81 31 -9 -9 -15 -28 -14 -43 1 -14 -7 -46 -18 -71 l-20
-45 -22 35 c-11 19 -33 71 -48 115 -42 124 -36 282 17 420 l11 29 25 -43 c13
-24 27 -54 30 -67z m-846 32 c0 -3 -4 -8 -10 -11 -5 -3 -10 -1 -10 4 0 6 5 11
10 11 6 0 10 -2 10 -4z m1310 -67 c0 8 3 12 6 8 3 -3 1 -14 -5 -24 -6 -11 -11
-13 -11 -5 0 7 -4 10 -10 7 -6 -3 -7 1 -3 10 5 13 7 14 14 3 7 -11 9 -10 9 1z
m-366 -355 c23 -9 20 -23 -4 -17 -11 3 -20 9 -20 14 0 11 3 11 24 3z"/>
<path d="M2474 3143 c2 -13 0 -26 -6 -29 -6 -4 -5 -10 3 -15 11 -7 10 -9 -3
-9 -9 0 -22 8 -28 18 -11 16 -11 16 -6 -1 3 -10 6 -23 6 -28 0 -5 18 -9 40 -9
38 0 40 2 40 30 0 17 -5 30 -11 30 -6 0 -8 -10 -5 -22 3 -13 -3 -5 -14 17 -11
22 -18 30 -16 18z"/>
<path d="M2910 3040 c0 -5 5 -10 10 -10 6 0 10 5 10 10 0 6 -4 10 -10 10 -5 0
-10 -4 -10 -10z"/>
<path d="M2871 3002 c-13 -12 -21 -25 -17 -29 8 -9 50 32 45 43 -2 5 -15 -1
-28 -14z"/>
<path d="M2086 2463 c4 -90 14 -181 30 -262 16 -78 22 -127 16 -133 -6 -6 -34
31 -76 99 -37 59 -89 133 -117 163 -27 30 -66 76 -87 102 -40 51 -66 65 -36
21 10 -16 45 -71 77 -123 33 -52 96 -135 140 -184 71 -80 78 -91 63 -102 -13
-9 -14 -13 -4 -18 7 -3 4 -4 -7 -1 -11 2 -67 15 -125 29 -71 16 -151 26 -245
30 l-140 6 150 -35 c99 -23 177 -35 230 -35 128 -2 137 -18 10 -19 -60 -1
-141 -8 -180 -17 -38 -8 -97 -20 -130 -26 -79 -14 -104 -28 -40 -23 28 2 100
7 160 10 61 3 157 15 215 29 58 13 107 22 108 21 2 -2 -29 -13 -70 -25 -135
-40 -163 -51 -285 -113 -67 -34 -121 -63 -119 -64 8 -8 291 94 374 136 56 28
102 48 101 44 -4 -26 1 -35 15 -24 27 23 26 -7 -3 -126 -22 -88 -31 -152 -35
-253 -3 -74 -4 -130 -1 -125 16 35 65 294 66 346 0 35 4 84 8 109 7 36 9 23 9
-65 1 -108 48 -405 64 -405 4 0 5 15 3 33 -2 17 -6 86 -9 152 -3 67 -14 161
-26 214 -28 127 -21 136 13 15 24 -84 143 -360 167 -387 19 -22 -92 306 -125
368 -20 39 -41 81 -46 95 -10 29 -13 33 72 -98 46 -72 167 -222 226 -282 14
-13 14 -12 2 10 -67 132 -289 418 -312 403 -6 -4 -7 -1 -2 6 8 13 12 9 135
-106 52 -50 289 -217 297 -210 8 9 -237 218 -317 269 -93 60 -123 89 -47 46
23 -14 68 -39 99 -57 50 -28 348 -136 348 -126 0 13 -289 150 -370 176 -56 17
-99 33 -97 36 3 2 51 -7 108 -21 57 -14 145 -27 194 -31 50 -3 119 -8 155 -11
36 -3 63 -4 60 -1 -16 16 -299 68 -405 75 -107 6 -114 7 -65 13 30 4 84 8 120
9 36 0 128 14 205 30 l140 30 -151 -5 c-113 -3 -180 -11 -264 -30 -62 -14
-115 -24 -117 -22 -1 2 45 18 105 35 93 28 387 160 378 170 -11 11 -285 -88
-374 -136 -137 -72 -147 -60 -43 50 71 75 262 340 243 337 -18 -2 -206 -226
-267 -317 -38 -56 -72 -99 -77 -94 -5 5 3 57 18 117 24 101 59 425 43 407 -15
-16 -69 -306 -77 -412 l-9 -115 -2 115 c-1 81 -10 159 -31 264 -16 82 -31 151
-34 153 -2 3 -2 -58 0 -134z"/>
<path d="M1937 2550 c30 -119 91 -287 137 -376 30 -60 55 -105 55 -100 3 39
-71 244 -129 361 -39 77 -67 129 -63 115z"/>
<path d="M2314 2417 c-40 -78 -86 -186 -104 -240 -32 -98 -36 -131 -9 -79 8
15 31 58 53 97 37 66 140 339 134 356 -2 5 -35 -56 -74 -134z"/>
<path d="M1692 2372 c9 -23 233 -214 306 -260 45 -29 82 -55 82 -58 0 -3 -43
17 -95 46 -81 43 -338 141 -370 140 -5 0 26 -19 70 -41 44 -22 103 -53 130
-68 72 -40 240 -94 266 -86 19 6 15 14 -52 82 -64 64 -348 270 -337 245z"/>
<path d="M2510 2295 c-105 -67 -307 -232 -296 -242 6 -6 206 121 241 154 27
26 164 144 174 150 2 2 2 5 0 7 -2 3 -56 -28 -119 -69z"/>
<path d="M1984 1902 c-94 -59 -370 -292 -291 -246 151 89 427 302 392 303 -5
0 -51 -25 -101 -57z"/>
<path d="M2071 1853 c-29 -54 -75 -161 -102 -237 -48 -134 -58 -176 -28 -118
7 15 37 70 65 122 46 87 132 315 122 326 -3 2 -28 -40 -57 -93z"/>
<path d="M2023 1867 c-39 -40 -110 -130 -157 -202 l-86 -130 96 100 c85 88
233 289 222 300 -2 3 -36 -28 -75 -68z"/>
<path d="M3271 2534 c0 -11 3 -14 6 -6 3 7 2 16 -1 19 -3 4 -6 -2 -5 -13z"/>
<path d="M1271 1214 c0 -11 3 -14 6 -6 3 7 2 16 -1 19 -3 4 -6 -2 -5 -13z"/>
<path d="M2615 969 c-17 -8 -16 -9 7 -4 16 3 28 0 31 -8 3 -7 6 -5 6 6 1 19
-13 21 -44 6z"/>
<path d="M1630 3525 c0 -8 2 -15 4 -15 2 0 6 7 10 15 3 8 1 15 -4 15 -6 0 -10
-7 -10 -15z"/>
<path d="M1600 3404 c0 -14 4 -23 10 -19 6 3 10 15 10 26 0 10 -4 19 -10 19
-5 0 -10 -12 -10 -26z"/>
<path d="M1910 3110 c-13 -8 -12 -10 3 -10 9 0 17 5 17 10 0 12 -1 12 -20 0z"/>
<path d="M1120 3024 c0 -2 15 -11 33 -20 27 -14 30 -15 19 -2 -11 14 -52 31
-52 22z"/>
<path d="M1140 2986 c0 -2 7 -7 16 -10 8 -3 12 -2 9 4 -6 10 -25 14 -25 6z"/>
<path d="M1171 2941 c-8 -5 -11 -16 -6 -30 5 -17 2 -21 -15 -21 -16 0 -20 4
-15 19 3 11 1 22 -5 26 -6 3 -10 -3 -10 -15 0 -12 -9 -24 -22 -30 -14 -5 -17
-9 -8 -10 8 -1 4 -6 -10 -12 l-25 -10 24 -9 c14 -5 31 -7 38 -4 8 2 11 0 8 -5
-13 -21 43 -9 58 13 l15 22 -1 -22 c-1 -13 -5 -23 -9 -23 -22 0 -3 -17 39 -34
26 -11 67 -39 90 -63 24 -23 43 -40 43 -37 0 14 -31 62 -55 84 -34 31 -105
137 -105 156 0 16 -9 18 -29 5z m54 -81 c3 -5 1 -10 -4 -10 -6 0 -11 5 -11 10
0 6 2 10 4 10 3 0 8 -4 11 -10z"/>
<path d="M970 2886 c0 -2 7 -9 15 -16 13 -11 14 -10 9 4 -5 14 -24 23 -24 12z"/>
<path d="M973 2820 c3 -8 12 -32 21 -53 9 -20 13 -37 9 -36 -18 3 -20 -3 -13
-41 6 -35 4 -43 -14 -55 l-20 -15 22 0 c12 0 55 -9 94 -20 87 -24 88 -24 88
-5 0 8 -4 15 -8 15 -16 0 -73 64 -119 134 -49 76 -70 101 -60 76z m54 -186
c-3 -3 -12 -4 -19 -1 -8 3 -5 6 6 6 11 1 17 -2 13 -5z"/>
<path d="M1402 2768 c4 -11 48 -45 48 -36 0 8 -37 48 -45 48 -3 0 -5 -5 -3
-12z"/>
<path d="M970 2760 c0 -5 5 -10 11 -10 5 0 7 5 4 10 -3 6 -8 10 -11 10 -2 0
-4 -4 -4 -10z"/>
<path d="M846 2700 c14 -30 55 -80 66 -80 6 0 0 11 -13 24 -13 13 -32 34 -42
47 -10 13 -15 17 -11 9z"/>
<path d="M1301 2683 c-12 -13 -12 -16 0 -24 17 -11 39 -12 39 -1 0 4 -6 14
-13 23 -11 14 -14 15 -26 2z"/>
<path d="M1160 1789 c0 -5 5 -7 10 -4 6 3 10 8 10 11 0 2 -4 4 -10 4 -5 0 -10
-5 -10 -11z"/>
<path d="M711 1557 c-13 -21 -12 -21 5 -5 10 10 16 20 13 22 -3 3 -11 -5 -18
-17z"/>
<path d="M923 1550 c-34 -14 -28 -21 7 -9 17 6 30 13 30 15 0 6 -12 4 -37 -6z"/>
<path d="M3200 1486 c0 -9 5 -16 10 -16 6 0 10 4 10 9 0 6 -4 13 -10 16 -5 3
-10 -1 -10 -9z"/>
<path d="M3290 1465 c-7 -9 -8 -15 -2 -15 5 0 12 7 16 15 3 8 4 15 2 15 -2 0
-9 -7 -16 -15z"/>
<path d="M1051 1410 c-18 -4 -40 -15 -49 -24 -20 -20 -4 -21 22 -1 19 15 36
12 36 -6 0 -6 -4 -7 -10 -4 -6 3 -7 -1 -4 -9 8 -21 9 -21 33 19 11 19 17 35
13 34 -4 -1 -22 -5 -41 -9z"/>
<path d="M830 1387 c-29 -42 -31 -47 -23 -47 9 0 46 61 40 66 -1 2 -9 -7 -17
-19z"/>
<path d="M781 1303 c-10 -26 -10 -27 4 -9 8 11 15 23 15 28 0 15 -7 8 -19 -19z"/>
<path d="M2975 1283 c-9 -10 -27 -33 -41 -50 -24 -31 -25 -33 -6 -33 11 0 22
7 26 15 3 9 12 12 23 8 16 -6 16 -5 4 10 -7 9 -9 17 -4 17 13 0 43 -33 43 -47
0 -6 6 -15 13 -22 20 -16 70 -118 63 -129 -14 -23 164 -82 250 -82 25 0 26 2
19 36 -3 20 -18 67 -31 103 -24 65 -26 67 -62 69 -115 8 -296 82 -277 113 10
16 -4 10 -20 -8z"/>
<path d="M756 1254 c-8 -20 -8 -24 2 -24 4 0 8 9 9 20 2 24 -3 26 -11 4z"/>
<path d="M930 1230 l-55 -7 58 -1 c32 -1 57 2 57 8 0 6 -1 9 -2 8 -2 -1 -28
-4 -58 -8z"/>
<path d="M2880 1182 c0 -6 9 -12 20 -15 11 -3 20 -3 20 -1 0 2 -9 8 -20 14
-11 6 -20 7 -20 2z"/>
<path d="M2975 1160 c-19 -8 -19 -9 3 -9 12 -1 22 4 22 9 0 6 -1 10 -2 9 -2 0
-12 -4 -23 -9z"/>
<path d="M1499 965 c-46 -22 -101 -65 -83 -65 5 0 20 9 34 20 14 11 30 20 35
19 6 0 1 -5 -10 -11 -19 -11 -19 -11 0 -19 17 -6 16 -8 -7 -8 -32 -1 -39 -11
-40 -52 -1 -17 -7 -33 -14 -36 -8 -3 -11 -9 -8 -15 3 -5 11 -4 20 3 11 9 14 7
14 -10 0 -11 -5 -21 -10 -21 -6 0 -8 -11 -4 -25 5 -19 2 -25 -11 -25 -13 0
-16 6 -11 25 5 21 3 25 -15 25 -17 0 -20 -5 -17 -25 3 -14 2 -25 -2 -25 -11 0
-20 94 -9 98 5 2 9 20 9 40 l0 36 -17 -23 c-13 -19 -16 -49 -17 -132 -1 -59 2
-110 6 -114 6 -6 139 56 166 77 8 7 12 39 12 92 0 45 6 106 14 136 8 30 14 56
13 56 -1 1 -23 -8 -48 -21z m-46 -95 c-3 -11 -7 -20 -9 -20 -2 0 -4 9 -4 20 0
11 4 20 9 20 5 0 7 -9 4 -20z"/>
</g>
</svg>
